<?xml version="1.0" encoding="UTF-8"?>
<svg id="Layer_1" data-name="Layer 1" xmlns="http://www.w3.org/2000/svg" viewBox="0 0 80.55 91.16">
  <defs>
    <style>
      .cls-1 {
        fill: #e6a329;
      }

      .cls-1, .cls-2, .cls-3, .cls-4 {
        stroke-width: 0px;
      }

      .cls-2 {
        fill: #f1bf22;
      }

      .cls-3 {
        fill: #fff;
      }

      .cls-4 {
        fill: #ebebeb;
      }
    </style>
  </defs>
  <polygon class="cls-1" points="80.55 0 40.28 0 40.28 0 0 0 7.55 81.89 40.28 91.16 40.28 91.16 40.28 91.16 40.28 91.16 40.28 91.16 72.99 81.89 80.55 0"/>
  <polygon class="cls-2" points="40.28 6.67 40.28 84.23 40.28 84.23 66.78 76.72 73.23 6.67 40.28 6.67"/>
  <polygon class="cls-3" points="61.36 16.72 20.6 16.72 17.76 47.38 17.82 47.19 52.45 47.19 51.32 60.15 40.28 63.34 29.06 60.11 28.39 52.26 18.21 52.26 19.66 67.94 40.28 73.8 60.89 67.94 63.72 37.16 26.98 37.16 27.45 26.9 52.95 26.9 53.33 32.77 63.6 32.77 61.36 16.72"/>
  <path class="cls-4" d="M40.28,16.72h-19.68l-2.83,30.66.06-.19h22.45v-10.02h-11.88l.47-10.26h11.41v-10.18ZM28.39,52.26h-10.18l1.45,15.68,20.61,5.84v-10.44l-11.21-3.23-.67-7.85Z"/>
</svg>